<svg width="150" height="141" viewBox="0 0 150 141" fill="none" xmlns="http://www.w3.org/2000/svg">
<g opacity="0.2">
<path d="M301.356 139.926C301.356 220.726 234.202 286.242 151.344 286.242C68.4862 286.242 1.33252 220.726 1.33252 139.926C1.33252 59.1269 68.4862 -6.38977 151.344 -6.38977C234.202 -6.38977 301.356 59.1269 301.356 139.926Z" stroke="white" stroke-width="0.75"/>
<path d="M281.024 139.926C281.024 209.772 222.973 266.41 151.344 266.41C79.7153 266.41 21.6646 209.772 21.6646 139.926C21.6646 70.0799 79.7153 13.4425 151.344 13.4425C222.973 13.4425 281.024 70.0799 281.024 139.926Z" stroke="white" stroke-width="0.75"/>
<path d="M257.887 139.926C257.887 197.308 210.195 243.842 151.344 243.842C92.4932 243.842 44.801 197.308 44.801 139.926C44.801 82.5437 92.4932 36.0103 151.344 36.0103C210.195 36.0103 257.887 82.5437 257.887 139.926Z" stroke="white" stroke-width="0.75"/>
<path d="M234.751 139.926C234.751 184.845 197.418 221.274 151.344 221.274C105.271 221.274 67.9375 184.845 67.9375 139.926C67.9375 95.0077 105.271 58.5782 151.344 58.5782C197.418 58.5782 234.751 95.0077 234.751 139.926Z" stroke="white" stroke-width="0.75"/>
<path d="M212.316 139.926C212.316 172.759 185.027 199.39 151.344 199.39C117.662 199.39 90.3726 172.759 90.3726 139.926C90.3726 107.094 117.662 80.4623 151.344 80.4623C185.027 80.4623 212.316 107.094 212.316 139.926Z" stroke="white" stroke-width="0.75"/>
<path d="M191.984 139.926C191.984 161.805 173.798 179.558 151.344 179.558C128.891 179.558 110.705 161.805 110.705 139.926C110.705 118.047 128.891 100.295 151.344 100.295C173.798 100.295 191.984 118.047 191.984 139.926Z" stroke="white" stroke-width="0.75"/>
<path d="M175.717 139.926C175.717 153.042 164.814 163.69 151.344 163.69C137.875 163.69 126.972 153.042 126.972 139.926C126.972 126.81 137.875 116.162 151.344 116.162C164.814 116.162 175.717 126.81 175.717 139.926Z" stroke="white" stroke-width="0.75"/>
</g>
</svg>
