<svg width="81" height="17" viewBox="0 0 81 17" fill="none" xmlns="http://www.w3.org/2000/svg">
<g clip-path="url(#clip0_107_1477)">
<path d="M6.27954 5.47102V8.2138H6.84761V8.76636H7.96461V8.2138H8.53268V5.47102H7.96461V4.91846H6.84761V5.47102H6.27954Z" fill="#2D3748"/>
<path d="M11.3933 5.47127V8.21404H11.9614V8.76643H13.0784V8.21404H13.6466V5.47127H13.0784V4.9187H11.9614V5.47127H11.3933Z" fill="#2D3748"/>
<path d="M0 6.02367V11.5289H0.568441V12.6337H1.1367V13.1861H1.70514V14.2908H2.2734V14.8434H3.40972V15.3958H3.97817V15.9482H5.68312V16.5004H10.7783V15.948H12.483V15.3956H13.0509V14.8432H14.1878V14.2907H14.7561V13.1861H15.3243V12.6337H15.8926V11.5289H16.4612V6.02367H15.8926V4.91872H15.3243V3.81413H14.7561V3.26174H14.1878V2.70918H13.6192V2.15679H13.0509V1.60423H12.483V1.0522H10.7783V0.499634H5.68312V1.0522H3.97817V1.60441H3.40972V2.15697H2.84184V2.70936H2.2734V3.26174H1.70514V3.81431H1.1367V4.9189H0.568441V6.02385L0 6.02367ZM0.549106 6.55708H1.11718V5.45213H1.68544V4.34736H2.25388L2.25406 3.79498H2.82195V3.24241H3.39057V2.69002H3.95883V2.13764H4.5269L4.52801 1.58525H6.23186L6.23241 1.03287H10.2294V1.58525H11.9345V2.13764H12.5028V2.69002H13.071V3.24223H13.6396V3.79462H14.2075V4.347H14.7758V5.45178H15.3442V6.55673H15.9125V10.995H15.3442V12.0997H14.7756V12.6521H14.2073V13.7571H13.6395V14.3095H12.5028V14.8617H11.9347V15.4139H10.2295V15.9664H6.23167V15.4146H4.52672V14.8624H3.95865V14.3098H2.82176V13.7573H2.25369V12.6527H1.68525V12.1005H1.11718V10.9957H0.549106V6.55708Z" fill="#2D3748"/>
<path d="M9.64289 10.9943H7.95728V11.5275H9.64289V10.9943Z" fill="#2D3748"/>
</g>
<path d="M29.5772 13.458C27.6137 13.458 26.0282 12.051 26.0282 9.45754C26.0282 6.89554 27.6662 5.40453 29.6402 5.40453C30.6272 5.40453 31.4147 5.86653 31.9187 6.39153L31.0997 7.38904C30.7007 7.00054 30.2597 6.73803 29.6612 6.73803C28.4957 6.73803 27.6137 7.74603 27.6137 9.40504C27.6137 11.106 28.4012 12.114 29.6402 12.114C30.3017 12.114 30.8267 11.799 31.2362 11.3475L32.0552 12.324C31.4147 13.0695 30.5852 13.458 29.5772 13.458ZM33.1813 13.311V4.94253H34.7248V7.05303L34.6513 8.15553C35.1133 7.71453 35.7013 7.29454 36.4993 7.29454C37.7593 7.29454 38.3158 8.17653 38.3158 9.64654V13.311H36.7723V9.84604C36.7723 8.92204 36.5098 8.61753 35.9428 8.61753C35.4598 8.61753 35.1553 8.84854 34.7248 9.26853V13.311H33.1813ZM41.3361 13.458C40.2861 13.458 39.6036 12.723 39.6036 11.715C39.6036 10.4655 40.6221 9.80403 42.9846 9.54153C42.9531 8.96403 42.7116 8.53354 41.9871 8.53354C41.4411 8.53354 40.9056 8.76453 40.3701 9.09004L39.8136 8.06104C40.5066 7.64103 41.3361 7.29454 42.2706 7.29454C43.7616 7.29454 44.5281 8.17653 44.5281 9.88804V13.311H43.2681L43.1526 12.6915H43.1106C42.5961 13.1325 42.0081 13.458 41.3361 13.458ZM41.8401 12.2505C42.2811 12.2505 42.6066 12.051 42.9846 11.6835V10.497C41.5461 10.6755 41.0736 11.064 41.0736 11.5995C41.0736 12.051 41.3886 12.2505 41.8401 12.2505ZM47.9869 13.458C46.5904 13.458 46.0549 12.576 46.0549 11.2635V8.64903H45.2359V7.50453L46.1494 7.44153L46.3174 5.84553H47.5984V7.44153H49.0579V8.64903H47.5984V11.2635C47.5984 11.9355 47.8819 12.2505 48.3964 12.2505C48.5959 12.2505 48.8164 12.177 48.9844 12.114L49.2364 13.2375C48.9214 13.3425 48.5119 13.458 47.9869 13.458ZM50.3903 13.311V5.54104H53.0888C54.7163 5.54104 56.0078 6.10803 56.0078 7.89303C56.0078 9.62554 54.7163 10.3815 53.0888 10.3815H51.9443V13.311H50.3903ZM51.9443 9.15303H52.9418C53.9498 9.15303 54.4958 8.72254 54.4958 7.89303C54.4958 7.06353 53.9498 6.78003 52.9418 6.78003H51.9443V9.15303ZM54.6113 13.311L52.8053 9.98254L53.8868 9.00603L56.3438 13.311H54.6113ZM59.7042 13.458C58.2237 13.458 56.8797 12.324 56.8797 10.3815C56.8797 8.42853 58.2237 7.29454 59.7042 7.29454C61.1742 7.29454 62.5182 8.42853 62.5182 10.3815C62.5182 12.324 61.1742 13.458 59.7042 13.458ZM59.7042 12.2085C60.5022 12.2085 60.9432 11.484 60.9432 10.3815C60.9432 9.26853 60.5022 8.55454 59.7042 8.55454C58.8957 8.55454 58.4547 9.26853 58.4547 10.3815C58.4547 11.484 58.8957 12.2085 59.7042 12.2085ZM66.277 13.458C64.7965 13.458 63.4525 12.324 63.4525 10.3815C63.4525 8.42853 64.7965 7.29454 66.277 7.29454C67.747 7.29454 69.091 8.42853 69.091 10.3815C69.091 12.324 67.747 13.458 66.277 13.458ZM66.277 12.2085C67.075 12.2085 67.516 11.484 67.516 10.3815C67.516 9.26853 67.075 8.55454 66.277 8.55454C65.4685 8.55454 65.0275 9.26853 65.0275 10.3815C65.0275 11.484 65.4685 12.2085 66.277 12.2085ZM70.3927 13.311V7.44153H71.6422L71.7682 8.21854H71.7997C72.2932 7.71453 72.8392 7.29454 73.5952 7.29454C74.4457 7.29454 74.9392 7.66203 75.2122 8.31304C75.7582 7.75653 76.3252 7.29454 77.0917 7.29454C78.3412 7.29454 78.9082 8.17653 78.9082 9.64654V13.311H77.3647V9.84604C77.3647 8.92204 77.1127 8.61753 76.5457 8.61753C76.2097 8.61753 75.8422 8.82753 75.4222 9.26853V13.311H73.8787V9.84604C73.8787 8.92204 73.6162 8.61753 73.0492 8.61753C72.7237 8.61753 72.3352 8.82753 71.9362 9.26853V13.311H70.3927Z" fill="#2D3748"/>
<defs>
<clipPath id="clip0_107_1477">
<rect width="16.4612" height="16.0008" fill="white" transform="translate(0 0.499634)"/>
</clipPath>
</defs>
</svg>
